<?xml version="1.0" encoding="utf-8"?>
<!-- Generator: Adobe Illustrator 24.1.2, SVG Export Plug-In . SVG Version: 6.00 Build 0)  -->
<svg version="1.1" id="Layer_1" xmlns:serif="http://www.serif.com/"
	 xmlns="http://www.w3.org/2000/svg" xmlns:xlink="http://www.w3.org/1999/xlink" x="0px" y="0px" viewBox="0 0 300 200"
	 style="enable-background:new 0 0 300 200;" xml:space="preserve">
<style type="text/css">
	.st0{fill:#FFFFFF;}
	.st1{fill:#F9CC01;}
</style>
<g>
	<polygon class="st0" points="62.7,68.1 32.4,84.1 32.4,118.7 57.4,131.9 57.4,139.9 24.9,122.7 24.9,80.1 62.7,60.1 	"/>
	<polygon class="st0" points="70.3,82.5 70.3,117.3 100.3,102.5 100.3,70.8 70.3,56 70.3,48.5 107.9,67 107.9,106.2 70.3,124.7 
		70.3,148.1 62.7,148.1 62.7,86.6 	"/>
	<polygon class="st0" points="62.7,82.9 70.3,78.6 70.3,73.9 62.7,78 	"/>
	<g>
		<g>
			<polygon class="st1" points="62.7,46.7 16,73.4 16,131.3 54.5,153.3 54.5,166.6 4.3,138 4.3,66.8 62.7,33.4 			"/>
		</g>
	</g>
	<g>
		<path class="st0" d="M133.7,120.4c-2.4-1.3-4.3-3.3-5.7-5.7c-1.3-2.5-2-5.3-2-8.6V94c0-3.3,0.7-6.1,2-8.6c1.3-2.5,3.2-4.4,5.7-5.7
			c2.4-1.4,5.3-2,8.5-2c2.7,0,5.1,0.5,7.4,1.6c2.2,1.1,4.1,2.6,5.6,4.6c1.5,2,2.5,4.3,3.1,6.9h-6.7c-0.4-1.4-1.1-2.6-2-3.7
			c-1-1.1-2.1-1.9-3.4-2.5c-1.3-0.6-2.6-0.9-4-0.9c-1.9,0-3.6,0.4-5,1.3c-1.4,0.9-2.5,2.1-3.3,3.6c-0.8,1.6-1.2,3.4-1.2,5.4v12
			c0,2.1,0.4,3.9,1.2,5.4c0.8,1.6,1.9,2.8,3.3,3.6c1.4,0.9,3.1,1.3,5,1.3c1.4,0,2.7-0.3,4-0.8c1.3-0.5,2.4-1.3,3.3-2.4
			c1-1.1,1.6-2.3,2-3.8h6.7c-0.5,2.6-1.6,4.9-3.1,6.9c-1.5,2-3.4,3.5-5.6,4.6c-2.2,1.1-4.7,1.6-7.3,1.6
			C139,122.4,136.2,121.7,133.7,120.4z"/>
		<path class="st0" d="M173.2,120.4c-2.5-1.3-4.4-3.2-5.8-5.7c-1.4-2.4-2-5.3-2-8.5V93.8c0-3.2,0.7-6.1,2-8.5
			c1.4-2.4,3.3-4.3,5.8-5.7c2.5-1.3,5.3-2,8.6-2c3.3,0,6.1,0.7,8.6,2c2.5,1.3,4.4,3.2,5.8,5.7c1.4,2.4,2,5.3,2,8.5v12.4
			c0,3.2-0.7,6.1-2,8.5c-1.4,2.4-3.3,4.3-5.8,5.7c-2.5,1.3-5.3,2-8.6,2C178.5,122.4,175.7,121.7,173.2,120.4z M186.9,115.1
			c1.5-0.8,2.6-2,3.4-3.5c0.8-1.5,1.2-3.2,1.2-5.2V93.6c0-2-0.4-3.7-1.2-5.2c-0.8-1.5-1.9-2.7-3.4-3.5c-1.5-0.8-3.2-1.2-5.1-1.2
			c-1.9,0-3.6,0.4-5.1,1.2c-1.5,0.8-2.6,2-3.4,3.5c-0.8,1.5-1.2,3.2-1.2,5.2v12.9c0,2,0.4,3.7,1.2,5.2c0.8,1.5,1.9,2.7,3.4,3.5
			c1.5,0.8,3.2,1.2,5.1,1.2C183.7,116.3,185.4,115.9,186.9,115.1z"/>
		<path class="st0" d="M208.1,78.1h6.5v43.9h-6.5V78.1z M211.4,116.1h26.7v5.9h-26.7V116.1z"/>
		<path class="st1" d="M252.3,121.9h-6.5V78.1h6.5V121.9z"/>
		<path class="st0" d="M270.7,120.4c-2.5-1.3-4.4-3.2-5.8-5.7c-1.4-2.4-2-5.3-2-8.5V93.8c0-3.2,0.7-6.1,2-8.5
			c1.4-2.4,3.3-4.3,5.8-5.7c2.5-1.3,5.3-2,8.6-2c3.3,0,6.1,0.7,8.6,2c2.5,1.3,4.4,3.2,5.8,5.7c1.4,2.4,2,5.3,2,8.5v12.4
			c0,3.2-0.7,6.1-2,8.5c-1.4,2.4-3.3,4.3-5.8,5.7c-2.5,1.3-5.3,2-8.6,2C276,122.4,273.2,121.7,270.7,120.4z M284.4,115.1
			c1.5-0.8,2.6-2,3.4-3.5c0.8-1.5,1.2-3.2,1.2-5.2V93.6c0-2-0.4-3.7-1.2-5.2c-0.8-1.5-1.9-2.7-3.4-3.5c-1.5-0.8-3.2-1.2-5.1-1.2
			c-1.9,0-3.6,0.4-5.1,1.2c-1.5,0.8-2.6,2-3.4,3.5c-0.8,1.5-1.2,3.2-1.2,5.2v12.9c0,2,0.4,3.7,1.2,5.2c0.8,1.5,1.9,2.7,3.4,3.5
			c1.5,0.8,3.2,1.2,5.1,1.2C281.2,116.3,282.9,115.9,284.4,115.1z"/>
	</g>
</g>
</svg>
